<svg width="850" height="550" xmlns="http://www.w3.org/2000/svg">
      <defs>
        <style>
          .aws-title { font-family: 'Arial', sans-serif; font-size: 16px; font-weight: bold; fill: #232F3E; }
          .aws-service { cursor: pointer; }
          .aws-service:hover rect { opacity: 0.8; }
        </style>
        
        <!-- Arrow marker -->
        <marker id="arrowhead" markerWidth="8" markerHeight="6" refX="7" refY="3" orient="auto">
          <polygon points="0 0, 8 3, 0 6" fill="#232F3E"/>
        </marker>
        
        <!-- Service shadow -->
        <filter id="serviceShadow" x="-20%" y="-20%" width="140%" height="140%">
          <feDropShadow dx="1" dy="1" stdDeviation="1" flood-color="rgba(0,0,0,0.2)"/>
        </filter>
      </defs>
      
      <!-- Clean white background -->
      <rect width="100%" height="100%" fill="white"/>
      
      <!-- AWS Cloud header -->
      <rect x="0" y="0" width="850" height="40" fill="#232F3E"/>
      <text x="20" y="25" font-family="Arial, sans-serif" font-size="14" font-weight="bold" fill="white">AWS Cloud</text>
      
      <!-- Title -->
      <text x="425" y="70" text-anchor="middle" class="aws-title">
        AWS Architecture Diagram
      </text>
      
      <!-- Account boundaries -->
      
      <!-- Customer's AWS Account -->
      <rect x="80" y="120" width="500" height="380" fill="none" stroke="#232F3E" stroke-width="2" rx="8"/>
      <rect x="80" y="120" width="500" height="25" fill="#232F3E" rx="8"/>
      <text x="90" y="137" font-family="Arial, sans-serif" font-size="11" font-weight="bold" fill="white">Customer's AWS Account</text>
      
      <!-- AWS Managed Account -->
      <rect x="620" y="120" width="180" height="380" fill="none" stroke="#232F3E" stroke-width="2" rx="8"/>
      <rect x="620" y="120" width="180" height="25" fill="#232F3E" rx="8"/>
      <text x="630" y="137" font-family="Arial, sans-serif" font-size="11" font-weight="bold" fill="white">AWS Managed Account</text>
    
      
      <!-- User icon -->
      
      <g transform="translate(30, 450)">
        <circle cx="20" cy="20" r="16" fill="#666" stroke="white" stroke-width="2"/>
        <text x="20" y="25" text-anchor="middle" font-size="14" fill="white">👤</text>
        <text x="20" y="45" text-anchor="middle" font-family="Arial, sans-serif" font-size="9" fill="#666">User</text>
      </g>
    
      
      <!-- AWS Services -->
      
        <g class="aws-service" data-service="Amazon S3">
          
        <g transform="translate(120, 160)">
          <!-- S3 Bucket Shape -->
          <path d="M10 20 Q10 10 20 10 L80 10 Q90 10 90 20 L90 50 Q90 60 80 60 L20 60 Q10 60 10 50 Z" 
                fill="#569A31" stroke="#2E7D32" stroke-width="2"/>
          <ellipse cx="50" cy="20" rx="40" ry="8" fill="#4CAF50" opacity="0.8"/>
          <ellipse cx="50" cy="25" rx="35" ry="6" fill="#66BB6A" opacity="0.6"/>
          <text x="50" y="45" text-anchor="middle" font-family="Arial, sans-serif" 
                font-size="10" font-weight="bold" fill="white">S3</text>
          <text x="50" y="75" text-anchor="middle" font-family="Arial, sans-serif" 
                font-size="9" fill="#232F3E">S3</text>
        </g>
      
        </g>
      
        <g class="aws-service" data-service="AWS Lambda">
          
        <g transform="translate(280, 160)">
          <!-- Lambda Function Shape -->
          <rect x="10" y="10" width="80" height="50" rx="8" fill="#FF9900" 
                stroke="#E65100" stroke-width="2"/>
          <path d="M25 20 L35 20 L45 40 L55 20 L65 20 L50 45 L40 45 Z" 
                fill="white" stroke="none"/>
          <text x="50" y="75" text-anchor="middle" font-family="Arial, sans-serif" 
                font-size="9" fill="#232F3E">Lambda</text>
        </g>
      
        </g>
      
        <g class="aws-service" data-service="Amazon RDS">
          
        <g transform="translate(440, 160)">
          <!-- Database Cylinder Shape -->
          <ellipse cx="50" cy="15" rx="35" ry="10" fill="#3F48CC" stroke="#1976D2" stroke-width="2"/>
          <rect x="15" y="15" width="70" height="35" fill="#3F48CC" stroke="none"/>
          <ellipse cx="50" cy="50" rx="35" ry="10" fill="#3F48CC" stroke="#1976D2" stroke-width="2"/>
          <line x1="15" y1="15" x2="15" y2="50" stroke="#1976D2" stroke-width="2"/>
          <line x1="85" y1="15" x2="85" y2="50" stroke="#1976D2" stroke-width="2"/>
          <text x="50" y="35" text-anchor="middle" font-family="Arial, sans-serif" 
                font-size="10" font-weight="bold" fill="white">DB</text>
          <text x="50" y="75" text-anchor="middle" font-family="Arial, sans-serif" 
                font-size="9" fill="#232F3E">RDS</text>
        </g>
      
        </g>
      
        <g class="aws-service" data-service="Amazon API Gateway">
          
        <g transform="translate(120, 280)">
          <!-- API Gateway Shape -->
          <rect x="10" y="10" width="80" height="50" rx="8" fill="#FF4B4B" 
                stroke="#D32F2F" stroke-width="2"/>
          <circle cx="30" cy="25" r="4" fill="white"/>
          <circle cx="50" cy="25" r="4" fill="white"/>
          <circle cx="70" cy="25" r="4" fill="white"/>
          <line x1="34" y1="25" x2="46" y2="25" stroke="white" stroke-width="2"/>
          <line x1="54" y1="25" x2="66" y2="25" stroke="white" stroke-width="2"/>
          <circle cx="30" cy="45" r="4" fill="white"/>
          <circle cx="50" cy="45" r="4" fill="white"/>
          <circle cx="70" cy="45" r="4" fill="white"/>
          <line x1="34" y1="45" x2="46" y2="45" stroke="white" stroke-width="2"/>
          <line x1="54" y1="45" x2="66" y2="45" stroke="white" stroke-width="2"/>
          <line x1="30" y1="29" x2="30" y2="41" stroke="white" stroke-width="2"/>
          <line x1="50" y1="29" x2="50" y2="41" stroke="white" stroke-width="2"/>
          <line x1="70" y1="29" x2="70" y2="41" stroke="white" stroke-width="2"/>
          <text x="50" y="75" text-anchor="middle" font-family="Arial, sans-serif" 
                font-size="9" fill="#232F3E">API Gateway</text>
        </g>
      
        </g>
      
      
      <!-- Flow connections -->
      
          <line x1="170" y1="195" x2="330" y2="195" 
                stroke="#232F3E" stroke-width="2" marker-end="url(#arrowhead)"/>
        
          <line x1="330" y1="195" x2="490" y2="195" 
                stroke="#232F3E" stroke-width="2" marker-end="url(#arrowhead)"/>
        
          <line x1="490" y1="195" x2="170" y2="315" 
                stroke="#232F3E" stroke-width="2" marker-end="url(#arrowhead)"/>
        
      
      <!-- Step numbers -->
      
          <circle cx="250" cy="195" r="12" fill="#232F3E" stroke="white" stroke-width="2"/>
          <text x="250" y="199" text-anchor="middle" 
                font-family="Arial, sans-serif" font-size="10" font-weight="bold" fill="white">1</text>
        
          <circle cx="410" cy="195" r="12" fill="#232F3E" stroke="white" stroke-width="2"/>
          <text x="410" y="199" text-anchor="middle" 
                font-family="Arial, sans-serif" font-size="10" font-weight="bold" fill="white">2</text>
        
          <circle cx="330" cy="255" r="12" fill="#232F3E" stroke="white" stroke-width="2"/>
          <text x="330" y="259" text-anchor="middle" 
                font-family="Arial, sans-serif" font-size="10" font-weight="bold" fill="white">3</text>
        
      
      <!-- AWS branding -->
      <text x="20" y="530" font-family="Arial, sans-serif" font-size="9" fill="#666">
        AWS Architecture • Generated by RFP Automation System
      </text>
    </svg>
